Coordinates
version=1
nRows=5
nColumns=40
inDegrees=yes
endheader
time	pelvis_tilt	pelvis_list	pelvis_rotation	pelvis_tx	pelvis_ty	pelvis_tz	hip_flexion_r	hip_adduction_r	hip_rotation_r	knee_angle_r	knee_angle_r_beta	ankle_angle_r	subtalar_angle_r	mtp_angle_r	hip_flexion_l	hip_adduction_l	hip_rotation_l	knee_angle_l	knee_angle_l_beta	ankle_angle_l	subtalar_angle_l	mtp_angle_l	lumbar_extension	lumbar_bending	lumbar_rotation	arm_flex_r	arm_add_r	arm_rot_r	elbow_flex_r	pro_sup_r	wrist_flex_r	wrist_dev_r	arm_flex_l	arm_add_l	arm_rot_l	elbow_flex_l	pro_sup_l	wrist_flex_l	wrist_dev_l
1760624813.57699990	      8.09050075	      1.06445703	     -2.95539698	      0.04035963	      0.96199687	      0.01843737	     80.00000000	     -7.00000000	      0.00000000	     80.00000000	      1.39626340	      0.00000000	      0.00000000	      0.00000000	     80.00000000	     -7.00000000	      0.00000000	     80.00000000	      1.39626340	      0.00000000	      0.00000000	      0.00000000	    -10.32634961	     -1.11067161	      8.66526472	      1.63522116	     -5.33224310	     -5.17865779	     19.41288830	     15.26964160	     29.15720888	     -9.74957910	      6.16058279	     -1.05008450	      6.35960520	     14.73995843	      0.00000000	     19.98819074	     13.87320653
1760624813.61100006	      7.99188559	      1.16060375	     -2.98654486	      0.04054479	      0.95990744	      0.01845496	     80.00000000	     -7.00000000	      0.00000000	     80.00000000	      1.39626340	      0.00000000	      0.00000000	      0.00000000	     80.00000000	     -7.00000000	      0.00000000	     80.00000000	      1.39626340	      0.00000000	      0.00000000	      0.00000000	    -10.24466499	     -1.18413116	      8.68429054	      1.99108275	     -5.25093616	     -4.19151180	     16.67485566	     13.54911515	     28.73556987	     -8.43552565	      6.39802817	     -0.70041825	      7.14139043	     10.98429335	      0.00000000	     19.86563838	     13.10051392
1760624813.64400005	      8.26880578	      1.22616641	     -3.06767317	      0.04315518	      0.95732282	      0.01933986	     80.00000000	     -7.00000000	      0.00000000	     80.00000000	      1.39626340	      0.00000000	      0.00000000	      0.00000000	     80.00000000	     -7.00000000	      0.00000000	     80.00000000	      1.39626340	      0.00000000	      0.00000000	      0.00000000	    -10.63984182	     -1.32254646	      8.59095379	      2.56806464	     -4.94999970	     -2.95356674	     14.55430767	     11.71565001	     26.98041054	     -7.01012646	      6.65657055	     -0.44678703	      7.54582733	      7.15001736	      0.00000000	     19.58036805	     12.44090972
1760624813.67799997	      7.98947868	      1.28063391	     -2.98973493	      0.03892241	      0.95336737	      0.01812805	     80.00000000	     -7.00000000	      0.00000000	     80.00000000	      1.39626340	      0.00000000	      0.00000000	      0.00000000	     80.00000000	     -7.00000000	      0.00000000	     80.00000000	      1.39626340	      0.00000000	      0.00000000	      0.00000000	    -10.14335229	     -1.24848853	      8.65491391	      2.45427192	     -4.75510904	     -2.84260659	     11.32394016	     10.88764318	     27.98399363	     -6.02681239	      6.14187110	     -0.27574459	      7.67269137	      5.41715255	      0.00000000	     19.47960430	     12.48735753
1760624813.71099997	      8.03677110	      1.27412148	     -3.01428661	      0.03958726	      0.95139039	      0.01880912	     80.00000000	     -7.00000000	      0.00000000	     80.00000000	      1.39626340	      0.00000000	      0.00000000	      0.00000000	     80.00000000	     -7.00000000	      0.00000000	     80.00000000	      1.39626340	      0.00000000	      0.00000000	      0.00000000	    -10.23657514	     -1.30026207	      8.54142254	      2.53775023	     -4.43589042	     -2.91621747	     11.33839890	     10.64228613	     26.52107591	     -5.34892306	      5.94887374	     -0.33263920	      7.27114249	      4.50731733	      0.00000000	     19.38357228	     12.75551104
